<?xml version="1.0" standalone="no"?>
<!DOCTYPE svg PUBLIC "-//W3C//DTD SVG 20010904//EN"
 "http://www.w3.org/TR/2001/REC-SVG-20010904/DTD/svg10.dtd">
<svg version="1.0" xmlns="http://www.w3.org/2000/svg"
 width="1115.000000pt" height="1280.000000pt" viewBox="0 0 1115.000000 1280.000000"
 preserveAspectRatio="xMidYMid meet">
<metadata>
Created by potrace 1.15, written by Peter Selinger 2001-2017
</metadata>
<g transform="translate(0.000000,1280.000000) scale(0.100000,-0.100000)"
fill="#000000" stroke="none">
<path d="M9800 12793 c-200 -35 -347 -113 -590 -315 -228 -189 -410 -320 -642
-462 -158 -96 -608 -420 -978 -705 -217 -166 -331 -237 -495 -307 -239 -102
-390 -142 -815 -214 -328 -55 -538 -95 -651 -124 -246 -62 -660 -263 -933
-453 -223 -155 -578 -464 -866 -754 -91 -91 -204 -196 -251 -232 -190 -146
-578 -377 -894 -532 -344 -169 -527 -230 -960 -320 -469 -98 -757 -191 -1069
-347 -149 -74 -220 -116 -366 -213 -184 -124 -200 -139 -200 -189 0 -86 69
-254 173 -422 74 -120 271 -349 482 -559 292 -293 510 -454 875 -649 80 -43
149 -81 153 -85 4 -4 -53 -109 -126 -232 -186 -311 -365 -634 -533 -963 -186
-366 -250 -512 -374 -851 -125 -344 -198 -524 -330 -815 -211 -466 -356 -896
-401 -1186 -13 -86 -9 -114 15 -114 17 0 39 64 90 261 117 447 242 676 553
1014 242 263 366 366 547 456 204 100 300 109 444 38 228 -112 465 -527 582
-1023 50 -211 79 -639 61 -911 -28 -418 -151 -999 -300 -1425 -40 -113 -49
-160 -33 -160 24 0 73 86 177 310 256 550 394 984 497 1555 31 173 32 190 33
450 0 170 -5 303 -13 360 -48 333 -202 755 -570 1560 -218 477 -266 660 -278
1055 -5 151 -3 227 10 335 20 162 30 201 57 216 12 6 140 14 302 19 329 10
381 19 722 122 217 65 646 268 935 442 80 47 156 89 169 93 40 10 68 -32 76
-114 9 -89 19 -131 57 -228 84 -214 228 -484 382 -720 280 -427 603 -775 1051
-1136 353 -283 577 -553 750 -904 122 -248 169 -422 210 -790 14 -126 27 -234
29 -240 5 -17 25 66 37 155 15 106 5 397 -16 495 -31 142 -168 519 -255 699
-32 67 -138 261 -236 431 -308 539 -419 793 -445 1015 -25 222 1 542 66 793
89 347 330 780 727 1307 170 227 244 340 329 507 97 190 178 423 214 619 25
130 33 408 24 769 -14 536 -12 646 11 760 21 107 42 187 84 329 19 64 26 111
26 170 l0 81 -54 -140 c-126 -331 -210 -513 -301 -650 -113 -169 -203 -245
-440 -374 -218 -119 -226 -133 -58 -107 98 15 116 15 193 2 177 -31 277 -78
320 -148 34 -56 51 -160 52 -313 0 -105 -4 -157 -17 -200 -32 -113 -321 -660
-450 -855 -74 -111 -255 -314 -357 -400 -83 -70 -140 -100 -189 -100 -87 0
-236 115 -309 240 -84 141 -127 335 -117 524 18 330 138 888 258 1201 130 338
317 531 619 639 86 31 94 37 166 127 69 87 151 164 299 284 160 130 159 129
115 120 -42 -9 -118 -46 -178 -87 -57 -39 -173 -92 -422 -193 -356 -145 -371
-154 -443 -263 -60 -90 -70 -113 -295 -712 -365 -971 -370 -997 -392 -2080 -7
-374 -10 -423 -29 -495 -27 -101 -76 -205 -129 -271 -76 -96 -204 -132 -310
-89 -81 33 -170 160 -265 375 -115 263 -162 506 -161 835 0 344 60 640 194
970 22 54 39 99 37 101 -5 5 -124 -141 -166 -204 -119 -182 -219 -477 -273
-804 -19 -114 -22 -171 -22 -393 1 -143 6 -289 12 -325 9 -57 8 -68 -7 -90
-48 -68 -221 -66 -468 6 -162 47 -270 111 -511 302 -322 257 -500 370 -632
403 -90 23 -256 16 -385 -15 -170 -41 -177 -57 -36 -76 47 -6 103 -21 125 -32
154 -77 333 -263 421 -437 47 -94 56 -132 66 -290 l11 -154 -59 -59 c-166
-169 -343 -268 -480 -268 -102 0 -324 66 -488 145 -328 157 -728 569 -866 893
-33 75 -34 82 -37 238 -3 151 -2 166 21 233 38 109 83 176 182 277 123 124
227 192 420 274 343 145 677 210 1084 210 189 0 305 -15 411 -52 248 -88 430
-225 624 -473 131 -166 196 -226 196 -178 0 9 -27 86 -61 170 -72 183 -87 249
-96 408 -18 363 80 689 302 999 194 273 428 531 583 645 94 69 248 149 304
158 55 8 117 -27 213 -123 65 -65 88 -95 105 -141 18 -48 150 -522 167 -600
12 -54 20 -12 27 135 11 254 48 400 154 607 47 91 71 124 137 190 67 68 98 90
188 135 l109 55 126 0 c70 0 175 -2 234 -5 139 -7 144 -2 90 83 -23 35 -42 74
-42 88 0 29 55 125 116 203 36 45 59 63 126 95 143 68 310 116 505 146 211 31
232 22 235 -102 0 -43 0 -86 -1 -97 -3 -36 28 4 102 128 39 67 82 137 96 156
118 162 307 323 488 413 140 71 201 68 283 -11 58 -57 70 -94 70 -217 0 -122
-15 -172 -165 -543 -202 -503 -344 -904 -379 -1074 -19 -91 -22 -327 -5 -443
16 -117 57 -240 75 -222 4 3 11 87 15 184 14 330 60 506 209 804 87 174 168
299 344 529 239 310 340 475 455 739 48 108 68 185 131 492 89 439 107 492
205 617 49 63 101 109 111 100 2 -3 -5 -30 -16 -61 -26 -73 -25 -112 3 -167
31 -63 72 -82 162 -77 121 7 355 120 355 171 0 7 -20 39 -45 70 -37 48 -45 66
-45 100 0 48 19 80 60 101 61 32 120 11 146 -51 21 -51 18 -157 -6 -204 -32
-63 -28 -75 45 -115 125 -70 175 -166 175 -337 0 -180 -60 -382 -211 -715
-103 -227 -186 -433 -239 -598 -104 -320 -205 -497 -513 -904 -77 -102 -165
-225 -195 -275 -140 -229 -263 -575 -307 -864 -19 -119 -30 -433 -18 -486 5
-22 13 -41 19 -43 6 -2 28 41 49 94 87 223 115 272 196 343 143 127 873 714
1083 872 148 111 264 174 353 190 58 11 64 10 115 -15 71 -35 143 -108 178
-182 137 -288 62 -893 -170 -1370 -181 -372 -442 -676 -821 -957 -432 -321
-667 -549 -883 -858 -139 -199 -219 -373 -281 -616 -31 -121 -80 -403 -71
-412 2 -2 16 13 31 32 22 29 29 53 40 145 28 223 137 461 329 716 89 117 262
290 316 314 91 42 182 20 225 -54 52 -89 52 -142 1 -635 -37 -353 -46 -576
-35 -845 13 -324 50 -621 81 -650 8 -7 9 28 4 125 -16 337 -18 575 -7 755 35
553 134 1000 333 1495 159 396 238 527 755 1253 540 758 619 887 709 1150 72
208 98 444 75 662 -33 300 -93 442 -272 641 l-83 92 -98 -75 c-145 -111 -325
-279 -469 -438 -133 -148 -170 -174 -195 -140 -28 38 -36 98 -31 215 6 135 22
195 130 485 141 377 253 750 318 1053 43 202 50 386 20 522 -30 137 -65 200
-175 317 -92 99 -94 102 -100 159 -25 237 -143 527 -232 569 -30 14 -98 18
-154 8z"/>
<path d="M8308 7187 c-14 -18 -49 -75 -78 -127 -87 -159 -153 -247 -430 -580
-179 -217 -282 -374 -408 -625 -77 -153 -124 -225 -148 -225 -32 0 -63 114
-80 295 -6 61 -8 66 -15 40 -31 -108 -44 -269 -43 -540 1 -601 104 -1167 299
-1640 49 -119 153 -320 176 -341 18 -17 19 -15 19 35 0 38 -17 106 -60 235
-68 207 -109 368 -142 558 -20 117 -23 166 -23 403 0 320 21 499 91 780 101
403 219 660 489 1065 97 145 201 308 232 363 52 93 163 318 163 331 0 15 -20
3 -42 -27z"/>
</g>
</svg>
