<svg height="512" viewBox="0 0 128 128" width="512" xmlns="http://www.w3.org/2000/svg"><g id="Circle_Grid" data-name="Circle Grid"><circle cx="64" cy="64" fill="#f6c863" r="64"/></g><g id="icon"><g fill="#414451"><path d="m81.826 104.958a1.7 1.7 0 0 1 -1.62-2.231l6.262-19.212-26.851-13.515a1.7 1.7 0 1 1 1.531-3.042l28.158 14.173a1.7 1.7 0 0 1 .854 2.048l-6.716 20.6a1.7 1.7 0 0 1 -1.618 1.179z"/><path d="m96.675 90.107a1.7 1.7 0 0 1 -1.7-1.7v-9.782l-35.634-7.472a1.7 1.7 0 0 1 .7-3.333l36.985 7.757a1.7 1.7 0 0 1 1.353 1.667v11.156a1.7 1.7 0 0 1 -1.704 1.707z"/><path d="m103.3 79.229a1.7 1.7 0 0 1 -1.466-.834l-6.053-10.2-31.57 3.93a1.7 1.7 0 0 1 -.42-3.379l32.676-4.068a1.7 1.7 0 0 1 1.674.821l6.622 11.162a1.7 1.7 0 0 1 -1.463 2.571z"/><path d="m71.42 69.581a1.7 1.7 0 0 1 -.673-3.267l30.579-13.157-6.312-28.038a1.7 1.7 0 1 1 3.322-.748l6.622 29.418a1.7 1.7 0 0 1 -.988 1.938l-31.878 13.715a1.7 1.7 0 0 1 -.672.139z"/><path d="m46.174 104.958a1.7 1.7 0 0 0 1.62-2.231l-6.262-19.212 26.851-13.515a1.7 1.7 0 1 0 -1.531-3.042l-28.158 14.173a1.7 1.7 0 0 0 -.854 2.048l6.716 20.6a1.7 1.7 0 0 0 1.618 1.179z"/><path d="m31.325 90.107a1.7 1.7 0 0 0 1.7-1.7v-9.782l35.632-7.473a1.7 1.7 0 1 0 -.7-3.333l-36.982 7.757a1.7 1.7 0 0 0 -1.353 1.667v11.157a1.7 1.7 0 0 0 1.703 1.707z"/><path d="m24.7 79.229a1.7 1.7 0 0 0 1.466-.834l6.053-10.2 31.57 3.93a1.7 1.7 0 0 0 .42-3.379l-32.674-4.071a1.7 1.7 0 0 0 -1.674.821l-6.622 11.162a1.7 1.7 0 0 0 1.461 2.571z"/><path d="m56.58 69.581a1.7 1.7 0 0 0 .673-3.267l-30.579-13.157 6.311-28.038a1.7 1.7 0 1 0 -3.322-.748l-6.621 29.417a1.7 1.7 0 0 0 .988 1.938l31.878 13.716a1.7 1.7 0 0 0 .672.139z"/><path d="m68.677 102.357a1.135 1.135 0 0 1 -.782-1.958c3.624-3.446.482-8.753.449-8.806a1.135 1.135 0 1 1 1.943-1.175c1.439 2.38 3.118 7.874-.828 11.626a1.131 1.131 0 0 1 -.782.313z"/><path d="m59.323 102.357a1.131 1.131 0 0 1 -.782-.313c-3.946-3.752-2.267-9.245-.827-11.626a1.135 1.135 0 0 1 1.942 1.175c-.148.248-3.143 5.391.449 8.806a1.135 1.135 0 0 1 -.782 1.958z"/></g><path d="m85.794 50.114a21.663 21.663 0 0 1 -18.355 21.328 21.422 21.422 0 0 1 -3.439.273 21.6 21.6 0 1 1 21.794-21.6z" fill="#4b4f5e"/><path d="m78.983 52.384a21.565 21.565 0 0 1 -11.544 19.058 21.422 21.422 0 0 1 -3.439.273 21.558 21.558 0 0 1 -10.25-40.648 21.415 21.415 0 0 1 3.439-.272 21.706 21.706 0 0 1 21.794 21.589z" fill="#575b6d"/><path d="m76.338 82.657a12.281 12.281 0 0 1 -12.338 12.214 13 13 0 0 1 -1.771-.125 12.2 12.2 0 0 1 0-24.189 13 13 0 0 1 1.771-.125 12.283 12.283 0 0 1 12.338 12.225z" fill="#4b4f5e"/><path d="m72.8 82.657a12.269 12.269 0 0 1 -10.571 12.089 12.2 12.2 0 0 1 0-24.189 12.272 12.272 0 0 1 10.571 12.1z" fill="#575b6d"/></g></svg>